<svg width="750" height="750" viewBox="0 0 750 750" fill="none" xmlns="http://www.w3.org/2000/svg">
<path d="M490.686 570.547C517.512 564.9 538.246 542.657 541.601 515.068L544.468 491.486H593.486V442.472L617.068 439.604C644.656 436.249 666.899 415.513 672.546 388.686H699.777C693.819 429.297 661.226 461.249 620.303 466.225V518.304H568.222C563.247 559.226 531.296 591.821 490.686 597.776V570.547ZM490.686 152.776C531.296 158.734 563.247 191.327 568.222 232.25H620.303V284.33C661.226 289.305 693.819 321.255 699.777 361.868H672.546C666.899 335.042 644.656 314.305 617.068 310.95L593.486 308.083V259.068H544.468L541.601 235.486C538.246 207.898 517.512 185.652 490.686 180.005V152.776ZM408.554 491.486H410.083L412.95 515.068C416.305 542.656 437.041 564.9 463.868 570.547V597.776C423.257 591.821 391.305 559.227 386.329 518.304H381.737L408.554 491.486ZM386.329 232.25C391.305 191.327 423.257 158.734 463.868 152.776V180.008C437.041 185.655 416.305 207.898 412.95 235.486L410.083 259.068H409.555L382.738 232.25H386.329Z" fill="#F2F0EF"/>
<path d="M65.6445 410.132C46.1183 390.606 46.1183 358.947 65.6445 339.421L242.421 162.645C261.947 143.118 293.606 143.118 313.132 162.645L382.737 232.25H334.251V284.33C293.328 289.305 260.732 321.255 254.776 361.868H282.004C287.651 335.04 309.898 314.305 337.487 310.95L361.068 308.083V259.068H409.555L489.908 339.421C509.434 358.947 509.434 390.606 489.908 410.132L408.554 491.486H361.068V442.472L337.487 439.604C309.899 436.249 287.654 415.513 282.007 388.686H254.776C260.732 429.298 293.328 461.249 334.251 466.225V518.304H381.736L313.132 586.908C293.606 606.435 261.947 606.435 242.421 586.908L65.6445 410.132Z" fill="#F2F0EF"/>
</svg>
